<svg width="30" height="30" viewBox="0 0 30 30" fill="none" xmlns="http://www.w3.org/2000/svg">
<path d="M15.0001 21.2223C18.4364 21.2223 21.2223 18.4364 21.2223 15.0001C21.2223 11.5636 18.4364 8.77783 15.0001 8.77783C11.5636 8.77783 8.77783 11.5636 8.77783 15.0001C8.77783 18.4364 11.5636 21.2223 15.0001 21.2223Z" stroke="#1B1C1E" stroke-width="1.5" stroke-linecap="round" stroke-linejoin="round"/>
<path d="M1 21.2222V8.77778C1 4.48224 4.48224 1 8.77778 1H21.2222C25.5177 1 29 4.48224 29 8.77778V21.2222C29 25.5177 25.5177 29 21.2222 29H8.77778C4.48224 29 1 25.5177 1 21.2222Z" stroke="#1B1C1E" stroke-width="1.5"/>
<path d="M23.5557 6.46124L23.5724 6.44263" stroke="#1B1C1E" stroke-width="1.5" stroke-linecap="round" stroke-linejoin="round"/>
</svg>
