<svg width="22" height="22" viewBox="0 0 22 22" fill="none" xmlns="http://www.w3.org/2000/svg">
<path fill-rule="evenodd" clip-rule="evenodd" d="M5.80518 11.2501C5.80518 8.3813 8.13081 6.05566 10.9996 6.05566C13.8684 6.05566 16.1941 8.38129 16.1941 11.2501C16.1941 14.1189 13.8684 16.4446 10.9996 16.4446C8.1308 16.4446 5.80518 14.1189 5.80518 11.2501ZM10.9996 7.55566C8.95923 7.55566 7.30518 9.20972 7.30518 11.2501C7.30518 13.2905 8.95924 14.9446 10.9996 14.9446C13.04 14.9446 14.6941 13.2905 14.6941 11.2501C14.6941 9.20973 13.04 7.55566 10.9996 7.55566Z" fill="#1B1C1E"/>
<path d="M17.6807 5.63945C17.9579 5.33158 17.9329 4.85736 17.625 4.58026C17.3172 4.30315 16.843 4.32808 16.5659 4.63595L16.5539 4.64924C16.2768 4.95711 16.3017 5.43133 16.6096 5.70844C16.9175 5.98555 17.3917 5.96061 17.6688 5.65274L17.6807 5.63945Z" fill="#1B1C1E"/>
<path fill-rule="evenodd" clip-rule="evenodd" d="M0.25 6.80556C0.25 3.3231 3.0731 0.5 6.55556 0.5H15.4444C18.9269 0.5 21.75 3.3231 21.75 6.80556V15.6944C21.75 19.1769 18.9269 22 15.4444 22H6.55556C3.0731 22 0.25 19.1769 0.25 15.6944V6.80556ZM6.55556 2C3.90152 2 1.75 4.15152 1.75 6.80556V15.6944C1.75 18.3485 3.90153 20.5 6.55556 20.5H15.4444C18.0985 20.5 20.25 18.3485 20.25 15.6944V6.80556C20.25 4.15153 18.0985 2 15.4444 2H6.55556Z" fill="#1B1C1E"/>
</svg>
