<svg width="22" height="22" viewBox="0 0 22 22" fill="none" xmlns="http://www.w3.org/2000/svg">
<path fill-rule="evenodd" clip-rule="evenodd" d="M17.7009 7.51702C17.8046 7.24476 17.7412 6.93706 17.5384 6.72791C17.3356 6.51875 17.03 6.44598 16.7547 6.54128L3.75467 11.0413C3.4511 11.1464 3.24817 11.4331 3.25001 11.7543C3.25186 12.0756 3.45808 12.36 3.76283 12.4615L8.09486 13.9055L12.4697 18.2804C12.6495 18.4602 12.9082 18.5366 13.1569 18.4834C13.4055 18.4302 13.6103 18.2547 13.7009 18.017L17.7009 7.51702ZM12.7114 16.4008L9.65992 13.3493L15.4239 9.28062L12.7114 16.4008ZM6.33151 11.7366L12.2417 9.69078L8.37735 12.4186L6.33151 11.7366Z" fill="#1B1C1E"/>
<path fill-rule="evenodd" clip-rule="evenodd" d="M11 0.5C5.06294 0.5 0.25 5.31294 0.25 11.25C0.25 17.187 5.06293 22 11 22C16.937 22 21.75 17.187 21.75 11.25C21.75 5.31293 16.937 0.5 11 0.5ZM1.75 11.25C1.75 6.14136 5.89136 2 11 2C16.1086 2 20.25 6.14137 20.25 11.25C20.25 16.3586 16.1086 20.5 11 20.5C5.89137 20.5 1.75 16.3586 1.75 11.25Z" fill="#1B1C1E"/>
</svg>
